<svg width="1000" height="1000" viewBox="0 0 1000 1000" fill="none" xmlns="http://www.w3.org/2000/svg">
<g clip-path="url(#clip0_16_165)">
<path d="M296.286 703.711H259.229V740.769H296.286V703.711Z" fill="#FFCA5F"/>
<path d="M259.209 740.77H222.327V777.828H259.209V740.77Z" fill="#FFCA5F"/>
<path d="M259.209 703.711H222.327V740.769H259.209V703.711Z" fill="#FFCA5F"/>
<path d="M259.209 666.655H222.327V703.713H259.209V666.655Z" fill="#FFCA5F"/>
<path d="M222.33 777.828H185.272V814.886H222.33V777.828Z" fill="#FFCA5F"/>
<path d="M222.33 740.77H185.272V777.828H222.33V740.77Z" fill="#FFCA5F"/>
<path d="M222.33 703.711H185.272V740.769H222.33V703.711Z" fill="#FFCA5F"/>
<path d="M185.267 777.828H148.209V814.886H185.267V777.828Z" fill="#FFCA5F"/>
<path d="M185.267 740.77H148.209V777.828H185.267V740.77Z" fill="#FFCA5F"/>
<path d="M777.831 444.5V481.558V518.598V555.656V592.556H814.888V555.656V518.598V481.558V444.5V407.442H777.831V444.5Z" fill="#ED8C00"/>
<path d="M740.767 629.614V666.672H777.825V629.614V592.556H740.767V629.614Z" fill="#ED8C00"/>
<path d="M740.767 407.443H777.825V370.385V333.327H740.767V370.385V407.443Z" fill="#ED8C00"/>
<path d="M740.771 666.655H703.713V703.713H740.771V666.655Z" fill="#ED8C00"/>
<path d="M740.771 296.269H703.713V333.327H740.771V296.269Z" fill="#ED8C00"/>
<path d="M703.733 703.711H666.675V740.769H703.733V703.711Z" fill="#ED8C00"/>
<path d="M703.733 259.387H666.675V296.269H703.733V259.387Z" fill="#ED8C00"/>
<path d="M592.558 740.77V777.828H629.616H666.674V740.77H629.616H592.558Z" fill="#ED8C00"/>
<path d="M629.616 259.389H666.674V222.331H629.616H592.558V259.389H629.616Z" fill="#ED8C00"/>
<path d="M518.602 777.828H481.562H444.504H407.446V814.886H444.504H481.562H518.602H555.502H592.56V777.828H555.502H518.602Z" fill="#ED8C00"/>
<path d="M481.562 222.33H518.602H555.502H592.56V185.272H555.502H518.602H481.562H444.504H407.446V222.33H444.504H481.562Z" fill="#ED8C00"/>
<path d="M370.387 740.77H333.33V777.828H370.387H407.445V740.77H370.387Z" fill="#ED8C00"/>
<path d="M407.445 259.389V222.331H370.387H333.33V259.389H370.387H407.445Z" fill="#ED8C00"/>
<path d="M333.325 703.711H296.267V740.769H333.325V703.711Z" fill="#ED8C00"/>
<path d="M333.325 259.387H296.267V296.269H333.325V259.387Z" fill="#ED8C00"/>
<path d="M296.286 666.655H259.229V703.713H296.286V666.655Z" fill="#ED8C00"/>
<path d="M296.286 296.269H259.229V333.327H296.286V296.269Z" fill="#ED8C00"/>
<path d="M259.227 592.556H222.327V629.614V666.672H259.227V629.614V592.556Z" fill="#ED8C00"/>
<path d="M259.227 370.385V333.327H222.327V370.385V407.443H259.227V370.385Z" fill="#ED8C00"/>
<path d="M222.33 518.598V481.558V444.5V407.442H185.272V444.5V481.558V518.598V555.656V592.556H222.33V555.656V518.598Z" fill="#ED8C00"/>
<path d="M888.824 666.672V703.713H925.882V666.672V629.615H888.824V666.672Z" fill="#FFA910"/>
<path d="M925.882 333.327V296.269H888.824V333.327V370.385V407.443H925.882V444.5V481.558V518.599V555.656V592.556V629.614H962.94V592.556V555.656V518.599V481.558V444.5V407.443V370.385H925.882V333.327Z" fill="#FFA910"/>
<path d="M851.947 740.769V777.827H888.829V740.769V703.711H851.947V740.769Z" fill="#FFA910"/>
<path d="M888.829 222.331H851.947V259.389V296.271H888.829V259.389V222.331Z" fill="#FFA910"/>
<path d="M851.943 777.828H814.885V814.886H851.943V777.828Z" fill="#FFA910"/>
<path d="M851.943 185.272H814.885V222.33H851.943V185.272Z" fill="#FFA910"/>
<path d="M814.888 814.887H777.831V851.945H814.888V814.887Z" fill="#FFA910"/>
<path d="M814.888 148.214H777.831V185.272H814.888V148.214Z" fill="#FFA910"/>
<path d="M740.771 111.173H703.713V148.214H740.771H777.829V111.173H740.771Z" fill="#FFA910"/>
<path d="M703.713 851.943V889.001H740.771H777.829V851.943H740.771H703.713Z" fill="#FFA910"/>
<path d="M666.67 74.1168H629.612V111.175H666.67H703.71V74.1168H666.67Z" fill="#FFA910"/>
<path d="M629.612 889.002V925.884H666.67H703.71V889.002H666.67H629.612Z" fill="#FFA910"/>
<path d="M555.498 925.883H518.598H481.558H444.5H407.442H370.384V962.941H407.442H444.5H481.558H518.598H555.498H592.556H629.613V925.883H592.556H555.498Z" fill="#FFA910"/>
<path d="M555.484 74.1168H518.602V111.175H555.484V74.1168Z" fill="#FFA910"/>
<path d="M407.446 222.331V259.389H444.504H481.562H518.602V296.271H555.502V259.389H592.56V222.331H555.502H518.602H481.562H444.504H407.446Z" fill="#FFA910"/>
<path d="M444.504 74.1168H407.446V111.175H444.504V74.1168Z" fill="#FFA910"/>
<path d="M407.442 111.173H370.384V148.231H407.442V111.173Z" fill="#FFA910"/>
<path d="M333.325 889.002H296.267V925.884H333.325H370.383V889.002H333.325Z" fill="#FFA910"/>
<path d="M333.33 259.387V296.269H370.387H407.445V259.387H370.387H333.33Z" fill="#FFA910"/>
<path d="M333.325 296.269H296.267V333.327H333.325V296.269Z" fill="#FFA910"/>
<path d="M333.327 222.33V185.272H370.384V148.214H333.327H296.269V185.272H259.229V222.33H296.269H333.327Z" fill="#FFA910"/>
<path d="M259.227 851.943H222.327V889.001H259.227H296.267V851.943H259.227Z" fill="#FFA910"/>
<path d="M259.229 370.385V407.443H296.269V370.385V333.327H259.229V370.385Z" fill="#FFA910"/>
<path d="M222.327 444.5V481.558V518.598V555.656V592.556H259.227V555.656V518.598V481.558V444.5V407.442H222.327V444.5Z" fill="#FFA910"/>
<path d="M259.209 222.331H222.327V259.389H259.209V222.331Z" fill="#FFA910"/>
<path d="M222.325 296.269V259.387H185.267V296.269H148.209V333.327V370.385H185.267V333.327H222.325V296.269Z" fill="#FFA910"/>
<path d="M148.229 370.386H111.171V407.444H148.229V370.386Z" fill="#FFA910"/>
<path d="M111.175 407.442H74.1167V444.5H111.175V407.442Z" fill="#FFA910"/>
<path d="M925.882 592.556H888.824V629.614H925.882V592.556Z" fill="#FFBA1F"/>
<path d="M888.828 444.5H851.946V481.558H814.888V518.598V555.656V592.556H777.831V629.614V666.671H814.888V629.614H851.946V592.556H888.828V555.656H925.886V518.598V481.558V444.5V407.442H888.828V444.5Z" fill="#FFBA1F"/>
<path d="M851.942 666.672H814.884V703.713H777.826V740.77H740.768V777.828H703.71V814.886H666.67V851.944H629.612V889.002H666.67H703.71V851.944H740.768H777.826V814.886H814.884V777.828H851.942V740.77V703.713H888.824V666.672V629.615H851.942V666.672Z" fill="#FFBA1F"/>
<path d="M777.825 370.386V407.444H814.883V444.502H851.941V407.444H888.823V370.386V333.328V296.271H851.941V259.389V222.331H814.883H777.825V259.389H740.767V296.271V333.328H777.825V370.386Z" fill="#FFBA1F"/>
<path d="M777.825 666.655H740.767V703.713H777.825V666.655Z" fill="#FFBA1F"/>
<path d="M777.825 555.656H740.767V592.538H777.825V555.656Z" fill="#FFBA1F"/>
<path d="M740.771 703.711H703.713V740.769H740.771V703.711Z" fill="#FFBA1F"/>
<path d="M703.733 740.77H666.675V777.828H703.733V740.77Z" fill="#FFBA1F"/>
<path d="M629.616 889.002H592.558V925.884H629.616V889.002Z" fill="#FFBA1F"/>
<path d="M629.618 851.944V814.886H666.675V777.828H629.618H592.56V814.886H555.502H518.602H481.562V851.944H444.504V889.002H407.446V925.884H444.504H481.562H518.602H555.502V889.002H592.56V851.944H629.618Z" fill="#FFBA1F"/>
<path d="M629.616 740.77H666.674V703.712H703.714V666.672H740.772V629.614V592.556H703.714V629.614H666.674V666.672H629.616V703.712H592.558V740.77H629.616Z" fill="#FFBA1F"/>
<path d="M592.553 740.77H555.495V777.828H592.553V740.77Z" fill="#FFBA1F"/>
<path d="M481.558 259.387H444.5H407.442V296.269H370.384H333.327V333.327H296.269V370.385V407.443H259.229V444.5V481.558V518.598V555.656V592.556V629.614H296.269V592.556H333.327V555.656H370.384V518.598H407.442V481.558H444.5V444.5H481.558V407.443H518.598V370.385H555.498V333.327H592.556V296.269H629.614V259.387H592.556H555.498V296.269H518.598V259.387H481.558Z" fill="#FFBA1F"/>
<path d="M444.498 851.943V814.885H407.441V777.828H370.383H333.325V740.77H296.267H259.227V777.828H222.327V814.885V851.943H259.227H296.267V889.001H333.325H370.383H407.441V851.943H444.498Z" fill="#FFBA1F"/>
<path d="M407.446 185.273H444.504H481.562H518.602H555.502H592.56V222.331H629.618H666.675H703.716V185.273H740.774V148.215H703.716V111.175H666.675H629.618V74.1168H592.56H555.502V111.175H518.602V74.1168H481.562V111.175H444.504V148.215H407.446V185.273Z" fill="#FFBA1F"/>
<path d="M407.445 740.77V777.828H444.503H481.561H518.601V740.77H555.501V703.712H592.559V666.672H629.617V629.614H666.674V592.557H703.715V555.657H740.773V518.599H777.83V481.559V444.501V407.443H740.773V370.385V333.327H703.715H666.674V370.385H629.617V407.443H592.559V444.501H555.501V481.559H518.601V518.599H481.561V555.657H444.503V592.557H407.445V629.614H370.387V666.672H333.33V703.712V740.77H370.387H407.445Z" fill="#FFBA1F"/>
<path d="M407.442 185.272H370.384V222.33H407.442V185.272Z" fill="#FFBA1F"/>
<path d="M407.442 74.1168H370.384V111.175H407.442V74.1168Z" fill="#FFBA1F"/>
<path d="M370.383 148.214V111.173H333.325H296.267V148.214H333.325H370.383Z" fill="#FFBA1F"/>
<path d="M296.286 222.331H259.229V259.389H296.286V222.331Z" fill="#FFBA1F"/>
<path d="M296.286 148.214H259.229V185.272H296.286V148.214Z" fill="#FFBA1F"/>
<path d="M259.209 259.387H222.327V296.269H259.209V259.387Z" fill="#FFBA1F"/>
<path d="M259.209 185.272H222.327V222.33H259.209V185.272Z" fill="#FFBA1F"/>
<path d="M222.33 666.671V629.614V592.556H185.273V555.656V518.598V481.558V444.5V407.442H148.215V444.5H111.175V481.558H74.1167V518.598V555.656V592.556V629.614H111.175V666.671V703.712H148.215V740.77H185.273V703.712H222.33V666.671Z" fill="#FFBA1F"/>
<path d="M222.33 370.386H185.272V407.444H222.33V370.386Z" fill="#FFBA1F"/>
<path d="M222.33 222.331H185.272V259.389H222.33V222.331Z" fill="#FFBA1F"/>
<path d="M185.267 259.387H148.209V296.269H185.267V259.387Z" fill="#FFBA1F"/>
<path d="M148.212 333.327V296.269H111.171V333.327V370.385H148.212V333.327Z" fill="#FFBA1F"/>
<path d="M111.175 370.386H74.1167V407.444H111.175V370.386Z" fill="#FFBA1F"/>
<path d="M925.882 555.656H888.824V592.538H925.882V555.656Z" fill="#FFD469"/>
<path d="M888.829 592.556H851.947V629.614H888.829V592.556Z" fill="#FFD469"/>
<path d="M888.829 407.442H851.947V444.5H888.829V407.442Z" fill="#FFD469"/>
<path d="M851.943 629.615H814.885V666.672H851.943V629.615Z" fill="#FFD469"/>
<path d="M851.943 444.501H814.885V481.559H851.943V444.501Z" fill="#FFD469"/>
<path d="M814.888 666.655H777.831V703.713H814.888V666.655Z" fill="#FFD469"/>
<path d="M777.825 703.711H740.767V740.769H777.825V703.711Z" fill="#FFD469"/>
<path d="M777.825 518.6H740.767V555.658H777.825V518.6Z" fill="#FFD469"/>
<path d="M740.771 740.77H703.713V777.828H740.771V740.77Z" fill="#FFD469"/>
<path d="M740.771 555.656H703.713V592.538H740.771V555.656Z" fill="#FFD469"/>
<path d="M703.715 296.269H740.773V259.387H777.831V222.33H814.889V185.272H777.831V148.214H740.773V185.272H703.715V222.33H666.675V259.387H703.715V296.269Z" fill="#FFD469"/>
<path d="M703.733 777.828H666.675V814.886H703.733V777.828Z" fill="#FFD469"/>
<path d="M703.733 592.556H666.675V629.614H703.733V592.556Z" fill="#FFD469"/>
<path d="M666.67 814.887H629.612V851.944H666.67V814.887Z" fill="#FFD469"/>
<path d="M666.67 629.615H629.612V666.672H666.67V629.615Z" fill="#FFD469"/>
<path d="M629.616 851.943H592.558V889.001H629.616V851.943Z" fill="#FFD469"/>
<path d="M629.616 666.655H592.558V703.713H629.616V666.655Z" fill="#FFD469"/>
<path d="M592.553 889.002H555.495V925.884H592.553V889.002Z" fill="#FFD469"/>
<path d="M592.553 703.711H555.495V740.769H592.553V703.711Z" fill="#FFD469"/>
<path d="M555.484 740.77H518.602V777.828H555.484V740.77Z" fill="#FFD469"/>
<path d="M518.598 481.558H555.498V444.5H592.556V407.443H629.614V370.385H666.672V333.327H703.712V296.269H666.672V259.387H629.614V296.269H592.556V333.327H555.498V370.385H518.598V407.443H481.558V444.5H444.5V481.558H407.442V518.599H370.384V555.656H333.327V592.556H296.269V629.614H259.229V666.672H296.269V703.712H333.327V666.672H370.384V629.614H407.442V592.556H444.5V555.656H481.558V518.599H518.598V481.558Z" fill="#FFD469"/>
<path d="M481.559 814.887H444.501V851.944H481.559V814.887Z" fill="#FFD469"/>
<path d="M444.504 851.943H407.446V889.001H444.504V851.943Z" fill="#FFD469"/>
<path d="M444.504 111.173H407.446V148.231H444.504V111.173Z" fill="#FFD469"/>
<path d="M444.5 74.1141V111.172H481.558V74.1141H518.598H555.498H592.556H629.613V37.0563H592.556H555.498H518.598H481.558H444.5H407.442H370.384V74.1141H407.442H444.5Z" fill="#FFD469"/>
<path d="M407.442 889.002H370.384V925.884H407.442V889.002Z" fill="#FFD469"/>
<path d="M407.442 148.214H370.384V185.272H407.442V148.214Z" fill="#FFD469"/>
<path d="M370.387 185.272H333.33V222.33H370.387V185.272Z" fill="#FFD469"/>
<path d="M370.383 111.175V74.1168H333.325H296.267V111.175H333.325H370.383Z" fill="#FFD469"/>
<path d="M333.325 222.331H296.267V259.389H333.325V222.331Z" fill="#FFD469"/>
<path d="M296.286 259.387H259.229V296.269H296.286V259.387Z" fill="#FFD469"/>
<path d="M259.209 296.269H222.327V333.327H259.209V296.269Z" fill="#FFD469"/>
<path d="M222.33 814.887H185.272V851.944H222.33V814.887Z" fill="#FFD469"/>
<path d="M222.33 333.327H185.272V370.385H222.33V333.327Z" fill="#FFD469"/>
<path d="M185.267 370.386H148.209V407.444H185.267V370.386Z" fill="#FFD469"/>
<path d="M111.171 777.827H148.212V740.769V703.711H111.171V740.769V777.827Z" fill="#FFD469"/>
<path d="M148.229 407.442H111.171V444.5H148.229V407.442Z" fill="#FFD469"/>
<path d="M148.212 259.387H185.27V222.329H222.327V185.271H259.227V148.214H296.267V111.173H259.227H222.327V148.214H185.27V185.271H148.212V222.329H111.171V259.387V296.269H148.212V259.387Z" fill="#FFD469"/>
<path d="M74.1167 703.713H111.175V666.672V629.615H74.1167V666.672V703.713Z" fill="#FFD469"/>
<path d="M111.175 333.327V296.269H74.1167V333.327V370.385H111.175V333.327Z" fill="#FFD469"/>
<path d="M74.1125 407.444V370.386H37.0547V407.444V444.502V481.56V518.6V555.658V592.557V629.615H74.1125V592.557V555.658V518.6V481.56H111.17V444.502H74.1125V407.444Z" fill="#FFD469"/>
<path d="M962.942 407.444V444.502V481.56V518.6V555.658V592.557V629.615H1000V592.557V555.658V518.6V481.56V444.502V407.444V370.386H962.942V407.444Z" fill="#3D2900"/>
<path d="M925.888 666.672V703.713H962.946V666.672V629.615H925.888V666.672Z" fill="#3D2900"/>
<path d="M925.888 370.385H962.946V333.327V296.269H925.888V333.327V370.385Z" fill="#3D2900"/>
<path d="M888.824 740.769V777.827H925.882V740.769V703.711H888.824V740.769Z" fill="#3D2900"/>
<path d="M888.824 296.271H925.882V259.389V222.331H888.824V259.389V296.271Z" fill="#3D2900"/>
<path d="M888.829 777.828H851.947V814.886H888.829V777.828Z" fill="#3D2900"/>
<path d="M888.829 185.272H851.947V222.33H888.829V185.272Z" fill="#3D2900"/>
<path d="M851.943 814.887H814.885V851.945H851.943V814.887Z" fill="#3D2900"/>
<path d="M851.943 148.214H814.885V185.272H851.943V148.214Z" fill="#3D2900"/>
<path d="M814.888 851.943H777.831V889.001H814.888V851.943Z" fill="#3D2900"/>
<path d="M814.888 111.173H777.831V148.231H814.888V111.173Z" fill="#3D2900"/>
<path d="M703.713 889.002V925.884H740.771H777.829V889.002H740.771H703.713Z" fill="#3D2900"/>
<path d="M740.771 111.175H777.829V74.1168H740.771H703.713V111.175H740.771Z" fill="#3D2900"/>
<path d="M629.612 925.883V962.941H666.67H703.71V925.883H666.67H629.612Z" fill="#3D2900"/>
<path d="M666.67 74.1141H703.71V37.0563H666.67H629.612V74.1141H666.67Z" fill="#3D2900"/>
<path d="M555.498 962.942H518.598H481.558H444.5H407.442H370.384V1000H407.442H444.5H481.558H518.598H555.498H592.556H629.613V962.942H592.556H555.498Z" fill="#3D2900"/>
<path d="M444.5 37.0578H481.558H518.598H555.498H592.556H629.613V0H592.556H555.498H518.598H481.558H444.5H407.442H370.384V37.0578H407.442H444.5Z" fill="#3D2900"/>
<path d="M333.325 925.883H296.267V962.941H333.325H370.383V925.883H333.325Z" fill="#3D2900"/>
<path d="M370.383 74.1141V37.0563H333.325H296.267V74.1141H333.325H370.383Z" fill="#3D2900"/>
<path d="M259.227 889.002H222.327V925.884H259.227H296.267V889.002H259.227Z" fill="#3D2900"/>
<path d="M296.267 111.175V74.1168H259.227H222.327V111.175H259.227H296.267Z" fill="#3D2900"/>
<path d="M222.33 851.943H185.272V889.001H222.33V851.943Z" fill="#3D2900"/>
<path d="M222.33 111.173H185.272V148.231H222.33V111.173Z" fill="#3D2900"/>
<path d="M185.267 814.887H148.209V851.944H185.267V814.887Z" fill="#3D2900"/>
<path d="M185.267 148.214H148.209V185.272H185.267V148.214Z" fill="#3D2900"/>
<path d="M148.229 777.828H111.171V814.886H148.229V777.828Z" fill="#3D2900"/>
<path d="M148.229 185.272H111.171V222.33H148.229V185.272Z" fill="#3D2900"/>
<path d="M111.175 703.711H74.1167V740.769V777.827H111.175V740.769V703.711Z" fill="#3D2900"/>
<path d="M111.175 259.389V222.331H74.1167V259.389V296.271H111.175V259.389Z" fill="#3D2900"/>
<path d="M74.1125 629.615H37.0547V666.672V703.713H74.1125V666.672V629.615Z" fill="#3D2900"/>
<path d="M74.1125 333.327V296.269H37.0547V333.327V370.385H74.1125V333.327Z" fill="#3D2900"/>
<path d="M37.0578 555.658V518.6V481.56V444.502V407.444V370.386H0V407.444V444.502V481.56V518.6V555.658V592.557V629.615H37.0578V592.557V555.658Z" fill="#3D2900"/>
<g clip-path="url(#clip1_16_165)">
<path fill-rule="evenodd" clip-rule="evenodd" d="M338.223 456.949C357.127 388.147 420.221 337.576 495.094 337.576C575.644 337.576 642.534 396.049 655.499 472.794C644.969 454.579 630.188 439.172 612.414 427.884C594.639 416.596 574.397 409.761 553.409 407.96C549.325 423.263 544.698 431.993 534.92 436.976C540.69 430.039 542.317 421.055 542.275 407.469C542.275 403.045 542.071 398.163 541.783 392.639C514.532 386.202 508.355 396.133 506.957 410.904C498.862 413.763 491.329 418.012 484.697 423.458H484.4C480.605 423.485 476.847 424.202 473.308 425.572L472.639 425.835C471.352 426.438 470.307 427.457 469.673 428.728C469.298 429.483 469.079 430.306 469.029 431.147V431.376C469.029 431.503 469.029 431.63 469.029 431.765C468.931 433.351 468.235 434.841 467.08 435.936C464.713 435.761 462.38 435.479 460.081 435.09C448.787 433.252 437.984 429.144 428.326 423.017C418.668 416.889 410.356 408.869 403.893 399.441C400.736 404.749 398.954 410.759 398.707 416.927H398.665L398.715 417.324C398.711 417.274 398.711 417.223 398.715 417.172C398.715 417.612 398.715 418.018 398.715 418.5C398.673 422.027 399.132 425.542 400.08 428.939C401.513 433.898 403.959 438.507 407.265 442.475C408.453 443.897 409.744 445.229 411.129 446.459C414.201 449.196 417.702 451.411 421.492 453.015C423.891 454.026 426.391 454.781 428.949 455.266L428.517 455.706L428.398 455.832C428.297 455.942 428.195 456.044 428.093 456.162L427.975 456.281L427.602 456.704L427.238 457.127L427.136 457.254L426.865 457.584L426.755 457.71L426.416 458.142L426.077 458.582L425.983 458.717L425.738 459.056L425.653 459.174L425.348 459.614C425.246 459.766 425.145 459.918 425.051 460.071L424.975 460.198L424.755 460.528L424.679 460.663L424.407 461.103L424.153 461.551L424.077 461.687C424.009 461.796 423.95 461.915 423.89 462.025C423.865 462.065 423.842 462.108 423.823 462.152C423.653 462.465 423.501 462.769 423.348 463.082L423.297 463.192L423.069 463.624L423.018 463.742C422.941 463.894 422.874 464.047 422.806 464.199L422.603 464.656C422.603 464.707 422.602 464.749 422.543 464.791C422.484 464.833 422.45 465.028 422.399 465.138L422.348 465.265C422.289 465.409 422.238 465.553 422.179 465.705V465.747C422.128 465.899 422.069 466.043 422.009 466.195L421.959 466.339L421.84 466.669L421.789 466.813C421.738 466.957 421.696 467.101 421.645 467.244V467.287C421.594 467.431 421.552 467.583 421.501 467.735C421.483 467.782 421.469 467.83 421.459 467.879C421.459 467.997 421.382 468.107 421.348 468.226V468.353C421.298 468.496 421.255 468.64 421.213 468.784V468.835C421.162 468.987 421.12 469.139 421.077 469.292V469.41C421.077 469.537 421.018 469.655 420.984 469.774V469.909C420.942 470.053 420.908 470.205 420.865 470.358C420.865 470.518 420.789 470.671 420.755 470.823V470.95C420.755 471.077 420.696 471.204 420.671 471.33V471.432C420.594 471.745 420.526 472.066 420.45 472.388V472.498C420.45 472.616 420.408 472.735 420.382 472.845V473.005C420.382 473.141 420.323 473.268 420.298 473.403V473.505C420.298 473.64 420.238 473.775 420.213 473.911V474.097C420.213 474.198 420.171 474.3 420.154 474.401V474.554C420.154 474.672 420.154 474.79 420.086 474.909V475.103L420.01 475.509V475.569C420.01 475.704 419.95 475.848 419.925 475.992V476.093L419.857 476.457V476.558L419.789 476.948L419.713 477.328L419.671 477.582V477.717L419.518 478.563V478.673L419.442 479.088V479.147L418.832 479.697C418.722 480.289 418.603 480.881 418.476 481.465V481.507L418.433 481.685V481.77V481.871V481.913V481.998V482.074V482.167V482.235C418.433 482.345 418.383 482.455 418.366 482.565V482.7V482.742C418.366 482.861 418.306 482.971 418.281 483.089V483.148V483.242V483.352V483.462C418.265 483.53 418.245 483.598 418.222 483.665V483.724V483.783V483.842V483.935V484.028V484.155V484.257V484.341V484.434V484.519V484.595V484.671C418.222 484.747 418.179 484.815 418.162 484.883V484.967V485.01V485.094V485.153V485.221V485.297V485.39V485.475C418.162 485.593 418.086 485.712 418.052 485.83C418.052 485.898 418.001 485.974 417.984 486.042V486.118V486.236L417.917 486.414V486.524V486.6V486.651C417.917 486.718 417.866 486.786 417.849 486.845V486.947L417.806 487.057C417.764 487.218 417.713 487.378 417.662 487.548L417.51 488.021C417.138 489.212 416.699 490.381 416.196 491.524L416.019 491.921C415.959 492.056 415.9 492.183 415.832 492.31C415.781 492.446 415.713 492.572 415.654 492.699L415.468 493.072L415.281 493.444L415.086 493.808C415.027 493.926 414.959 494.044 414.892 494.163C414.832 494.281 414.764 494.4 414.697 494.51C414.637 494.628 414.57 494.747 414.502 494.857L414.298 495.195L414.095 495.525C414.027 495.635 413.959 495.745 413.883 495.855L413.68 496.176L413.468 496.489L413.256 496.802L413.044 497.107L412.824 497.411C412.756 497.513 412.68 497.614 412.604 497.707C412.536 497.809 412.46 497.902 412.383 498.004L412.163 498.291L411.943 498.579L411.714 498.866L411.485 499.146L411.256 499.425L411.028 499.704L410.799 499.975L409.511 500.846L409.274 501.117C409.197 501.201 409.121 501.294 409.036 501.379L408.799 501.65C408.723 501.734 408.647 501.827 408.562 501.912C408.486 502.005 408.401 502.09 408.325 502.174L408.079 502.436C408.003 502.521 407.918 502.606 407.842 502.699L407.596 502.952L407.35 503.215L406.859 503.739L406.613 504.001L406.367 504.264L405.876 504.797C405.791 504.89 405.706 504.974 405.63 505.067C405.384 505.338 405.13 505.609 404.884 505.913L404.63 506.184L404.384 506.463L404.139 506.742L403.884 507.03C403.8 507.123 403.715 507.216 403.639 507.318L403.393 507.605L403.139 507.901L402.884 508.206C402.241 506.897 401.565 505.603 400.859 504.323C399.758 502.326 398.571 500.372 397.326 498.469C391.332 489.343 383.767 481.35 374.981 474.858C371.999 472.651 368.886 470.626 365.66 468.793C362.153 466.809 358.519 465.06 354.78 463.556V463.497C354.983 463.894 355.187 464.292 355.382 464.69C355.661 465.24 355.924 465.789 356.187 466.382V466.449L356.526 467.185V467.244C357.826 470.082 358.98 472.985 359.983 475.941C361.189 479.512 362.173 483.154 362.932 486.845C363.497 489.603 363.937 492.403 364.253 495.246C364.253 495.119 364.211 494.992 364.194 494.865V494.924C364.194 495.034 364.237 495.153 364.253 495.271C365.01 502.063 365.01 508.918 364.253 515.71L363.66 515.193L364.22 515.667C364.169 516.116 364.126 516.555 364.076 516.961C335.466 497.291 313.72 469.196 301.871 436.595C304.381 453.426 308.097 470.055 312.988 486.355C318.782 503.555 326.455 520.066 335.867 535.59H330.978C337.291 555.893 348.433 590.34 350.967 588.961C353.501 587.582 340.875 598.613 332.528 605.88H366.296C368.555 609.089 370.942 612.219 373.456 615.27C373.456 616.59 373.566 617.893 373.71 619.187L374.04 619.246C370.51 618.708 366.925 618.62 363.372 618.984H363.694C361.286 619.242 358.906 619.72 356.585 620.414L356.212 620.524C350.105 622.335 343.553 621.93 337.717 619.38C331.88 616.829 327.137 612.299 324.326 606.591L324.385 606.802C327.139 616.954 325.072 625.557 330.639 628.374L343.714 635.827L344.027 636.149L344.129 636.25L344.366 636.487C344.459 636.572 344.544 636.665 344.629 636.749L344.874 636.986L345.146 637.24C345.23 637.316 345.307 637.401 345.391 637.468L345.662 637.722L345.908 637.951L346.188 638.204L346.434 638.416L346.722 638.661L346.976 638.881L347.256 639.118L347.518 639.338L347.806 639.575L348.069 639.786L348.357 640.015L348.62 640.218L348.916 640.446L349.179 640.641L349.476 640.869L349.747 641.064L350.043 641.284L350.314 641.478L350.62 641.69L350.891 641.876L351.196 642.087L351.475 642.273L351.78 642.477L352.06 642.663L352.374 642.866C352.471 642.919 352.564 642.978 352.653 643.043L352.967 643.238L353.246 643.407L353.568 643.602L353.848 643.771L354.178 643.957C354.268 644.017 354.361 644.071 354.458 644.118L354.78 644.312L355.068 644.465L355.399 644.651L355.687 644.803L356.009 644.981L356.305 645.133L356.636 645.31L356.924 645.454L357.271 645.624L357.551 645.767L357.898 645.937L358.178 646.072L358.534 646.241L358.813 646.368L359.178 646.537L359.449 646.656L359.813 646.816L360.101 646.943L360.457 647.095L360.745 647.214L361.11 647.366L361.389 647.476L361.762 647.628L362.042 647.738L362.415 647.882L362.694 647.984L363.084 648.128L363.355 648.229L363.737 648.364L364.016 648.466L364.398 648.593L364.677 648.686L365.058 648.813L365.338 648.906L365.736 649.033L366.008 649.117L366.406 649.244L366.677 649.32L367.084 649.447C367.17 649.468 367.255 649.493 367.338 649.523L367.779 649.642L368.007 649.709L368.456 649.828L368.685 649.887L369.143 650.006L369.363 650.065L369.855 650.183L370.032 650.226L370.515 650.344H370.719L371.202 650.454L371.388 650.496L371.888 650.606H372.075L372.583 650.708H372.752C372.93 650.708 373.117 650.767 373.295 650.809H373.439L374.074 650.919C376.787 651.393 379.526 651.698 382.277 651.833L383.633 651.884H384.217C384.87 651.884 385.531 651.884 386.192 651.884C396.507 651.9 406.671 649.408 415.807 644.625C422.518 641.241 442.236 626.801 459.556 626.801C463.655 626.795 467.709 627.655 471.451 629.326C475.193 630.997 478.537 633.441 481.265 636.496L483.587 639.033C488.205 644.111 493.214 648.821 498.568 653.119C501.912 655.775 505.386 658.265 508.99 660.589L508.228 660.03C509.075 660.631 509.838 661.172 510.6 661.671C505.516 662.154 506.126 662.407 495.119 662.407C484.112 662.407 461.301 659.726 446.066 655.005L444.015 656.638C440.812 659.149 437.48 661.492 434.033 663.659C449.494 671.348 465.975 676.795 482.977 679.834C465.992 676.797 449.529 671.356 434.084 663.676C423.126 670.581 411.102 675.632 398.495 678.624C428.153 694.674 461.36 703.064 495.094 703.03C607.386 703.03 698.459 612.115 698.459 500C698.459 498.46 698.459 496.921 698.4 495.39C698.4 496.921 698.459 498.46 698.459 500C698.459 495.364 698.29 490.754 697.976 486.194C697.883 484.815 697.773 483.453 697.654 482.083C688.588 378.351 601.369 296.97 495.094 296.97C459.2 296.967 423.946 306.452 392.914 324.461C361.883 342.47 336.18 368.36 318.42 399.5C317.112 401.645 316.344 404.075 316.183 406.581C316.123 407.641 316.264 408.703 316.598 409.711C319.1 419.508 322.856 428.942 327.775 437.78L327.122 436.291L327.783 437.78L327.834 437.907L327.783 437.788C330.879 443.355 334.421 448.663 338.375 453.658C338.163 454.504 337.96 455.291 337.757 456.103V456.188V456.264V456.145V456.103V456.061C337.952 455.257 338.163 454.462 338.375 453.658L338.926 454.352C338.68 455.198 338.435 456.044 338.197 456.89L338.223 456.949ZM697.612 482.066C697.33 479.246 696.988 476.426 696.587 473.606C696.994 476.398 697.335 479.218 697.612 482.066ZM696.561 473.445C696.358 472.024 696.129 470.611 695.892 469.216C696.129 470.62 696.358 472.033 696.561 473.445ZM695.112 464.935C694.87 463.711 694.615 462.493 694.35 461.28C694.613 462.49 694.875 463.708 695.112 464.935ZM694.265 460.705C694.002 459.529 693.731 458.353 693.418 457.178C693.706 458.353 693.977 459.529 694.265 460.705ZM683.91 428.39C683.512 427.459 683.105 426.537 682.69 425.615C683.105 426.537 683.538 427.459 683.91 428.39ZM682.216 424.507C681.8 423.601 681.368 422.696 680.953 421.8C681.377 422.696 681.8 423.601 682.216 424.507ZM680.453 420.742C680.029 419.896 679.606 419.05 679.174 418.153C679.606 418.999 680.021 419.845 680.453 420.742ZM678.538 416.91C678.114 416.064 677.691 415.218 677.242 414.423C677.682 415.252 678.114 416.081 678.538 416.91ZM676.623 413.264C676.166 412.418 675.708 411.572 675.242 410.726C675.708 411.572 676.174 412.418 676.623 413.264ZM674.573 409.584C674.098 408.738 673.615 407.934 673.132 407.114C673.615 407.96 674.098 408.755 674.573 409.584ZM672.496 406.039C672.005 405.193 671.514 404.432 671.014 403.628C671.514 404.474 672.005 405.227 672.496 406.039ZM652.719 379.163C652.168 378.537 651.618 377.92 651.024 377.302C651.584 377.92 652.134 378.537 652.719 379.163ZM647.059 373.047C646.5 372.463 645.94 371.888 645.364 371.355C645.932 371.922 646.491 372.497 647.059 373.047ZM535.233 318.296L533.225 318.119L535.275 318.339L535.233 318.296ZM645.237 562.711C645.076 563.075 644.923 563.447 644.762 563.811L645.237 562.711ZM641.856 570.215C641.729 570.485 641.593 570.748 641.466 571.01L641.856 570.215ZM528.59 658.964C528.175 659.057 527.743 659.142 527.353 659.218C527.768 659.142 528.2 659.057 528.59 658.964ZM336.638 537.036C340.705 543.652 345.064 550.05 349.713 556.231C350.603 557.415 351.492 558.583 352.399 559.742C356.836 566.27 359.198 573.983 359.178 581.872C359.177 584.092 358.99 586.307 358.619 588.496C358.11 587.729 357.61 586.951 357.119 586.161C347.608 571.031 340.675 554.431 336.604 537.036H336.638ZM362.72 594.451C364.598 593.649 366.536 592.992 368.516 592.489H368.338C370.126 592.083 371.931 591.761 373.659 591.491H373.566C375.13 591.308 376.703 591.215 378.277 591.211C379.209 591.211 380.141 591.211 381.065 591.313L381.184 591.11L380.997 591.431L381.065 591.313C377.361 596.329 374.909 602.156 373.913 608.308C369.934 603.874 366.198 599.229 362.72 594.392V594.451ZM374.99 605.897C374.99 605.813 374.99 605.728 375.032 605.643C375.032 605.728 375.032 605.813 374.99 605.897ZM375.066 605.457C375.066 605.381 375.066 605.305 375.108 605.229C375.108 605.305 375.108 605.381 375.066 605.457ZM375.456 603.732C375.456 603.664 375.456 603.596 375.515 603.52C375.515 603.596 375.472 603.664 375.456 603.732ZM375.566 603.326C375.566 603.249 375.608 603.165 375.625 603.089C375.625 603.165 375.583 603.249 375.566 603.326ZM375.693 602.869C375.693 602.801 375.735 602.733 375.752 602.666C375.752 602.733 375.752 602.801 375.693 602.869ZM376.091 601.591C376.091 601.515 376.15 601.431 376.176 601.354C376.176 601.431 376.125 601.515 376.091 601.591ZM376.752 599.806C376.752 599.722 376.811 599.646 376.837 599.569C376.837 599.646 376.777 599.722 376.752 599.806ZM313.141 486.854C313.09 486.71 313.048 486.566 313.005 486.414C313.005 486.566 313.09 486.71 313.141 486.854ZM357.203 585.34C357.203 584.816 357.161 584.308 357.127 583.801C357.127 584.308 357.187 584.816 357.203 585.34ZM347.967 558.549C347.688 558.067 347.4 557.585 347.12 557.094C347.417 557.585 347.705 558.067 347.967 558.549ZM359.161 619.28H359.517L360.983 619.153L359.161 619.314V619.28ZM398.639 416.901C398.639 416.901 398.639 416.901 398.639 416.952V416.901ZM355.297 574.021C355.156 573.565 355.003 573.108 354.839 572.651C354.998 573.108 355.15 573.565 355.297 574.021ZM350.653 563.379C350.391 562.872 350.12 562.373 349.806 561.857C350.094 562.373 350.365 562.872 350.653 563.379ZM349.806 561.848C349.518 561.341 349.238 560.833 348.959 560.325C349.255 560.833 349.535 561.341 349.806 561.848Z" fill="#3D2900"/>
<path fill-rule="evenodd" clip-rule="evenodd" d="M437.016 447.652C436.897 447.737 436.77 447.813 436.651 447.906C436.524 447.982 436.406 448.067 436.287 448.151L435.94 448.405L436.287 448.151L437.067 447.618L437.016 447.652ZM341.086 619.855L341.595 619.915H341.722H342.23H341.722L341.103 619.847L341.086 619.855ZM348.772 620.101H348.925H349.441H349.984H350.102H350.602H350.102L348.772 620.16V620.101ZM348.925 620.101H349.441H348.925ZM353.721 619.813H354.187H354.407H354.763H355.059H355.119H355.475H355.771H355.873L356.424 619.762H356.551H356.746H356.907H357.263H357.356H357.618H357.695L358.33 619.712H358.576H358.686H359.042L353.644 620.185L353.721 619.813ZM436.99 447.677L436.626 447.931C436.745 447.838 436.872 447.762 436.99 447.677ZM418.831 479.697V480.467V480.509L418.789 480.687V480.771L418.831 479.697ZM456.225 442.221L456.302 442.289H456.191V442.221H456.225ZM456.302 442.289L456.225 442.221L456.302 442.289ZM506.609 411.039C508.304 471.432 494.568 460.908 484.061 461.077H483.468C483.27 461.077 483.075 461.094 482.883 461.128L482.298 461.204C482.104 461.204 481.917 461.272 481.722 461.323L481.155 461.483C480.968 461.543 480.782 461.61 480.604 461.686L480.061 461.932C479.884 462.025 479.706 462.126 479.536 462.236C479.367 462.346 479.189 462.456 479.019 462.583C478.845 462.706 478.678 462.839 478.519 462.981C478.358 463.125 478.197 463.277 478.036 463.446C477.875 463.615 477.723 463.793 477.57 463.979C477.418 464.174 477.265 464.368 477.113 464.588C476.723 465.104 476.333 465.637 475.952 466.179C475.757 466.449 475.57 466.72 475.384 467.024L474.825 467.87C474.638 468.15 474.46 468.429 474.283 468.716C474.105 468.996 473.927 469.283 473.757 469.562C473.579 469.858 473.401 470.146 473.232 470.408L472.715 471.254V471.313C472.545 471.601 472.384 471.897 472.215 472.159V472.202C472.045 472.498 471.876 472.794 471.715 473.048L471.673 473.124L471.19 474.021V474.071L470.707 474.977L470.664 475.053L470.181 475.983L469.673 476.956C461.064 493.681 452.531 515.024 427.78 526.766C418.187 531.309 409.943 515.295 403.206 507.859L403.46 507.554L403.715 507.258L403.96 506.971C404.037 506.869 404.121 506.776 404.206 506.683L404.46 506.395L404.706 506.116L404.952 505.837L405.206 505.566C405.452 505.287 405.706 505.017 405.952 504.72C406.028 504.627 406.113 504.543 406.197 504.45L406.689 503.917L406.935 503.655L407.18 503.392L407.672 502.868L407.918 502.606L408.163 502.352C408.24 502.259 408.324 502.174 408.401 502.09L408.646 501.827C408.723 501.743 408.807 501.658 408.884 501.565C408.968 501.48 409.045 501.387 409.121 501.303L409.358 501.032C409.443 500.947 409.519 500.854 409.595 500.77L409.511 500.846L409.748 500.575L409.977 500.305L410.205 500.025L410.434 499.746L410.663 499.467L410.892 499.179L411.112 498.892L411.332 498.604C411.409 498.503 411.485 498.41 411.553 498.308C411.629 498.215 411.705 498.113 411.773 498.012L411.993 497.707L412.205 497.403L412.417 497.09L412.629 496.777L412.832 496.455C412.908 496.345 412.976 496.235 413.044 496.125L413.247 495.796L413.451 495.457C413.519 495.347 413.586 495.229 413.646 495.11C413.713 495 413.781 494.882 413.841 494.763C413.908 494.645 413.976 494.527 414.035 494.408L414.23 494.044L414.417 493.672L414.603 493.3C414.662 493.173 414.73 493.046 414.781 492.911C414.849 492.784 414.908 492.657 414.968 492.522L415.145 492.124C415.648 490.982 416.087 489.813 416.459 488.622L416.611 488.148C416.662 487.979 416.713 487.818 416.755 487.657L416.798 487.547V487.446C416.798 487.387 416.84 487.319 416.866 487.251V487.201V487.124V487.014L416.933 486.837V486.718V486.642C416.933 486.575 416.984 486.498 417.001 486.431C417.001 486.312 417.077 486.194 417.111 486.075V485.991V485.898V485.822V485.754V485.695V485.61V485.568V485.483C417.111 485.416 417.154 485.348 417.171 485.272V485.196V485.12V485.035V484.942V484.857V484.756V484.629V484.536V484.443V484.384V484.324V484.265C417.194 484.199 417.214 484.131 417.23 484.062V483.952V483.842V483.749V483.69C417.23 483.571 417.289 483.461 417.315 483.343V483.301V483.165C417.315 483.055 417.366 482.945 417.383 482.835V482.768V482.675V482.599V482.514V482.446C417.383 481.99 417.34 481.533 417.34 481.067C417.34 480.746 417.34 480.416 417.34 480.086V479.562C417.538 472.3 419.824 465.248 423.925 459.248C428.027 453.248 433.772 448.553 440.473 445.723C444.715 443.789 449.325 442.791 453.988 442.796H455.014C454.565 442.263 454.098 441.73 453.632 441.214C449.611 436.306 444.748 432.149 439.27 428.939L439.388 428.999C438.414 428.499 437.397 428.017 436.355 427.577C443.823 431.245 451.797 433.782 460.013 435.106C462.318 435.479 464.651 435.761 467.012 435.952C468.167 434.858 468.863 433.368 468.961 431.782C468.961 431.646 468.961 431.52 468.961 431.393V431.164C469.011 430.323 469.23 429.5 469.605 428.745C470.239 427.474 471.284 426.455 472.571 425.852L473.24 425.589C476.778 424.219 480.537 423.502 484.332 423.474H484.629C491.181 418.089 498.618 413.876 506.609 411.022V411.039ZM301.896 436.629C301.665 440.898 301.549 445.196 301.549 449.522C301.549 452.731 301.614 455.925 301.744 459.106V459.157C302.043 466.539 302.673 473.834 303.633 481.042C304.311 486.118 305.159 491.126 306.175 496.066C309.367 512.077 314.194 527.719 320.58 542.746C324.185 551.222 328.27 559.487 332.816 567.499L333.011 567.897C330.706 587.303 322.326 599.434 323.928 605.305C324.063 605.821 324.216 606.32 324.368 606.802L324.309 606.591C327.125 612.293 331.871 616.817 337.706 619.362C343.542 621.908 350.091 622.31 356.195 620.498L356.568 620.388C358.888 619.695 361.268 619.216 363.677 618.959H363.355C366.908 618.595 370.493 618.683 374.023 619.221L373.693 619.162C372.575 609.293 375.226 599.367 381.116 591.364L381.048 591.482L381.234 591.161L381.116 591.364C380.192 591.296 379.26 591.262 378.328 591.262C376.753 591.265 375.18 591.359 373.617 591.541H373.71C372.015 591.812 370.176 592.133 368.388 592.539H368.566C363.937 593.713 359.561 595.72 355.653 598.461C355.814 597.784 355.966 597.116 356.102 596.456C355.975 597.074 355.839 597.691 355.686 598.317C358.507 592.158 359.691 585.377 359.124 578.627C358.557 571.878 356.259 565.388 352.45 559.784C351.543 558.625 350.653 557.458 349.763 556.273C333.833 535.111 321.413 511.529 312.98 486.431C308.097 470.116 304.394 453.473 301.896 436.629ZM359.517 619.28L360.982 619.153L359.161 619.314H359.517V619.28ZM361.313 619.128L362.499 619.035L361.313 619.128ZM337.256 619.128L337.739 619.255L337.256 619.128ZM337.824 619.272L338.29 619.373L337.824 619.272ZM338.392 619.399L338.866 619.492L338.392 619.399ZM338.934 619.509L339.383 619.593L338.934 619.509ZM339.46 619.602L339.96 619.686L339.46 619.602ZM340.036 619.695L340.519 619.771L340.036 619.695ZM340.637 619.788L341.129 619.847L340.637 619.788ZM342.332 619.965H342.874H342.332ZM342.908 620.016H343.451H342.908ZM343.485 620.016H344.01H343.485ZM344.112 620.016H344.637H344.112ZM344.688 620.016H345.789H344.688ZM347.086 620.016H347.645H347.086ZM348.306 620.016H348.831H348.306ZM350.78 619.906H351.255H350.78ZM351.992 619.83H352.483H351.992ZM353.314 619.737H353.78H353.314ZM375.481 616.759C375.477 616.692 375.477 616.624 375.481 616.556C375.477 616.624 375.477 616.692 375.481 616.759ZM375.388 616.311C375.388 616.243 375.387 616.184 375.345 616.116C375.345 616.184 375.345 616.243 375.388 616.311ZM375.303 615.896C375.303 615.82 375.303 615.753 375.26 615.685C375.26 615.753 375.26 615.82 375.303 615.896ZM375.227 615.482C375.227 615.406 375.226 615.33 375.184 615.245C375.184 615.33 375.184 615.406 375.227 615.482ZM375.159 615.084L375.108 614.814L375.159 615.084ZM375.082 614.653C375.082 614.56 375.082 614.475 375.082 614.391C375.082 614.475 375.082 614.56 375.082 614.653ZM375.032 614.238C375.032 614.145 375.032 614.052 374.989 613.959C374.989 614.052 374.989 614.145 375.032 614.238ZM374.972 613.832C374.972 613.731 374.972 613.629 374.972 613.536C374.972 613.629 374.972 613.731 374.972 613.832ZM374.921 613.367C374.921 613.282 374.921 613.198 374.921 613.122C374.921 613.198 374.921 613.282 374.921 613.367ZM374.871 612.893V612.699V612.893ZM374.871 612.504C374.866 612.428 374.866 612.352 374.871 612.276C374.866 612.352 374.866 612.428 374.871 612.504ZM374.786 610.761C374.782 610.711 374.782 610.66 374.786 610.609C374.782 610.66 374.782 610.711 374.786 610.761ZM374.786 609.966C374.79 609.901 374.79 609.836 374.786 609.772C374.79 609.836 374.79 609.901 374.786 609.966ZM374.786 609.535C374.79 609.476 374.79 609.416 374.786 609.357C374.79 609.416 374.79 609.476 374.786 609.535ZM374.786 609.129C374.782 609.067 374.782 609.005 374.786 608.943C374.782 609.005 374.782 609.067 374.786 609.129ZM374.786 608.723C374.79 608.655 374.79 608.587 374.786 608.52C374.79 608.587 374.79 608.655 374.786 608.723ZM374.786 608.317C374.782 608.246 374.782 608.176 374.786 608.105C374.782 608.176 374.782 608.246 374.786 608.317ZM374.786 607.894C374.782 607.826 374.782 607.758 374.786 607.691C374.782 607.758 374.782 607.826 374.786 607.894ZM374.786 607.488V607.268V607.488ZM374.837 607.065V606.845V607.065ZM374.888 606.675C374.888 606.591 374.888 606.506 374.888 606.43C374.888 606.506 374.888 606.591 374.888 606.675ZM374.955 606.236C374.951 606.16 374.951 606.083 374.955 606.007C374.951 606.083 374.951 606.16 374.955 606.236ZM375.023 605.838C375.023 605.753 375.023 605.669 375.066 605.584C375.066 605.669 375.065 605.753 375.023 605.838ZM375.099 605.398C375.099 605.322 375.099 605.246 375.142 605.17C375.142 605.246 375.142 605.322 375.099 605.398ZM375.184 604.975L375.235 604.747L375.184 604.975ZM375.286 604.527C375.296 604.458 375.31 604.39 375.328 604.324C375.31 604.39 375.296 604.458 375.286 604.527ZM375.379 604.095L375.43 603.901L375.379 604.095ZM375.489 603.672C375.489 603.605 375.489 603.537 375.549 603.461C375.549 603.537 375.506 603.605 375.489 603.672ZM375.599 603.266C375.599 603.19 375.642 603.105 375.659 603.029C375.659 603.105 375.616 603.19 375.599 603.266ZM375.726 602.809C375.726 602.742 375.769 602.674 375.786 602.606C375.786 602.674 375.786 602.742 375.726 602.809ZM375.854 602.395C375.872 602.318 375.895 602.241 375.921 602.167C375.895 602.241 375.872 602.318 375.854 602.395ZM375.989 601.955C376.016 601.88 376.038 601.804 376.057 601.727C376.038 601.804 376.016 601.88 375.989 601.955ZM376.125 601.524C376.125 601.447 376.184 601.363 376.209 601.287C376.209 601.363 376.159 601.447 376.125 601.524ZM376.286 601.075L376.362 600.838L376.286 601.075ZM376.43 600.652L376.531 600.39L376.43 600.652ZM376.599 600.204L376.701 599.942L376.599 600.204ZM376.786 599.739C376.786 599.654 376.845 599.578 376.87 599.502C376.87 599.578 376.811 599.654 376.786 599.739ZM377.158 598.808L377.252 598.588L377.158 598.808ZM377.777 597.412C377.809 597.331 377.845 597.252 377.887 597.175C377.845 597.252 377.809 597.331 377.777 597.412ZM377.989 596.955L378.108 596.71L377.989 596.955ZM378.463 595.983L378.574 595.754L378.463 595.983ZM378.955 595.01L379.082 594.773L378.955 595.01ZM379.489 594.011L379.624 593.758L379.489 594.011ZM366.685 592.819L366.372 592.903L366.685 592.819ZM358.025 596.27L357.881 596.363L358.025 596.27ZM328.749 525.709C328.673 525.548 328.588 525.379 328.503 525.218C328.588 525.379 328.673 525.548 328.749 525.709ZM328.164 524.533C328.071 524.347 327.978 524.152 327.876 523.958C327.978 524.152 328.071 524.347 328.164 524.533ZM327.419 523.035L327.164 522.519L327.419 523.035ZM326.766 521.707L326.563 521.276L326.766 521.707ZM326.004 520.125C325.927 519.948 325.834 519.77 325.758 519.584C325.834 519.77 325.927 519.948 326.004 520.125ZM325.393 518.823C325.309 518.636 325.216 518.459 325.131 518.273C325.216 518.459 325.309 518.636 325.393 518.823ZM324.597 517.131C324.512 516.945 324.427 516.75 324.334 516.564C324.427 516.75 324.512 516.945 324.597 517.131ZM323.995 515.794C323.902 515.599 323.809 515.405 323.724 515.202C323.809 515.405 323.902 515.599 323.995 515.794ZM323.19 513.992C323.106 513.815 323.029 513.628 322.953 513.451C323.029 513.628 323.106 513.815 323.19 513.992ZM322.58 512.596C322.495 512.393 322.402 512.199 322.318 511.996C322.402 512.199 322.495 512.393 322.58 512.596ZM321.86 510.904L321.606 510.295L321.86 510.904ZM321.165 509.212L320.936 508.646L321.165 509.212ZM320.538 507.614L320.301 507.021L320.538 507.614ZM319.801 505.769L319.572 505.186L319.801 505.769ZM319.182 504.179C319.106 503.993 319.038 503.807 318.962 503.629C319.038 503.807 319.106 503.993 319.182 504.179ZM318.42 502.199C318.352 502.005 318.276 501.81 318.199 501.616C318.276 501.81 318.352 502.005 318.42 502.199ZM317.818 500.592L317.589 499.975L317.818 500.592ZM317.055 498.494L316.852 497.919L317.055 498.494ZM316.462 496.802C316.395 496.599 316.318 496.388 316.242 496.185C316.318 496.388 316.395 496.599 316.462 496.802ZM315.691 494.594L315.564 494.197L315.691 494.594ZM313.149 486.82C313.098 486.676 313.056 486.532 313.014 486.38C313.014 486.532 313.098 486.676 313.149 486.82ZM356.127 596.389C356.263 595.754 356.381 595.128 356.491 594.511C356.381 595.128 356.263 595.754 356.127 596.389ZM356.508 594.358C356.61 593.783 356.703 593.208 356.78 592.666C356.703 593.233 356.61 593.808 356.508 594.358ZM356.805 592.455C356.873 591.897 356.941 591.347 357 590.805C356.941 591.347 356.873 591.897 356.805 592.455ZM357.017 590.611C357.068 590.061 357.11 589.519 357.144 588.978C357.144 589.519 357.068 590.061 357.017 590.611ZM357.152 588.851C357.152 588.276 357.203 587.709 357.212 587.159C357.212 587.718 357.212 588.284 357.152 588.851ZM357.22 587.159C357.22 586.592 357.22 586.034 357.22 585.467C357.22 586.017 357.22 586.575 357.22 587.159ZM357.22 585.374C357.22 584.85 357.178 584.342 357.144 583.835C357.144 584.342 357.203 584.85 357.22 585.374ZM357.135 583.682C357.102 583.192 357.059 582.701 357.008 582.21C357.059 582.701 357.102 583.192 357.135 583.682ZM356.991 582.041C356.941 581.55 356.873 581.068 356.805 580.578C356.873 581.068 356.941 581.55 356.991 582.041ZM356.78 580.442C356.703 579.935 356.619 579.427 356.525 578.928C356.619 579.427 356.703 579.935 356.78 580.442ZM356.517 578.877C356.424 578.361 356.313 577.854 356.195 577.346C356.313 577.854 356.424 578.361 356.517 578.877ZM356.169 577.245C356.051 576.762 355.932 576.28 355.805 575.806C355.932 576.28 356.051 576.762 356.169 577.245ZM355.763 575.663C355.636 575.197 355.5 574.74 355.356 574.275C355.5 574.74 355.636 575.197 355.763 575.663ZM355.314 574.114C355.172 573.658 355.02 573.201 354.856 572.744C355.014 573.201 355.167 573.658 355.314 574.114ZM354.805 572.6C354.644 572.126 354.466 571.661 354.288 571.187C354.466 571.661 354.644 572.126 354.805 572.6ZM354.254 571.094C354.06 570.604 353.865 570.113 353.653 569.622C353.865 570.113 354.06 570.604 354.254 571.094ZM353.627 569.555C353.432 569.081 353.221 568.599 353.009 568.125C353.221 568.599 353.432 569.081 353.627 569.555ZM352.941 567.99C352.738 567.533 352.526 567.076 352.305 566.628C352.526 567.076 352.738 567.533 352.941 567.99ZM352.221 566.442L351.56 565.097L352.221 566.442ZM351.467 564.927C351.229 564.462 350.992 563.988 350.746 563.523C350.992 563.988 351.229 564.462 351.467 564.927ZM350.679 563.413C350.416 562.906 350.145 562.406 349.831 561.89C350.119 562.406 350.39 562.906 350.679 563.413ZM349.831 561.882C349.543 561.374 349.263 560.867 348.984 560.359C349.28 560.867 349.56 561.374 349.831 561.882ZM348.891 560.19L348.043 558.752L348.891 560.19ZM347.959 558.583C347.679 558.1 347.391 557.618 347.111 557.128C347.408 557.618 347.696 558.1 347.959 558.583ZM347.01 556.984C346.713 556.485 346.408 555.977 346.094 555.47C346.408 555.977 346.713 556.485 347.01 556.984ZM346.027 555.351C345.71 554.827 345.388 554.302 345.061 553.778C345.388 554.302 345.71 554.827 346.027 555.351ZM344.993 553.659C344.671 553.143 344.349 552.61 344.018 552.086C344.349 552.61 344.671 553.143 344.993 553.659ZM359.034 473.293C373.244 492.268 372.405 518.569 392.885 532.916C382.779 528.585 373.129 523.263 364.075 517.029C364.457 513.645 364.838 508.883 364.838 505.423C364.84 502.054 364.656 498.687 364.287 495.339C364.287 495.22 364.287 495.102 364.228 494.992V494.924C364.228 495.051 364.27 495.178 364.287 495.305C363.971 492.485 363.53 489.685 362.965 486.905C362.207 483.213 361.222 479.571 360.016 476C359.711 475.095 359.389 474.19 359.05 473.293H359.034ZM441.447 445.216L441.083 445.385L441.447 445.216ZM441.049 445.402L440.676 445.588L441.049 445.402ZM440.617 445.613L440.244 445.799L440.617 445.613ZM440.202 445.825L439.837 446.011L440.202 445.825ZM439.77 446.045L439.414 446.239L439.77 446.045ZM439.371 446.265L438.999 446.468L439.371 446.265ZM438.973 446.485L438.626 446.688L438.973 446.485ZM438.566 446.713C438.456 446.789 438.338 446.848 438.219 446.924C438.338 446.848 438.456 446.789 438.566 446.713ZM438.16 446.958L437.821 447.17L438.16 446.958ZM437.761 447.204L437.414 447.424L437.761 447.204ZM437.363 447.457L437.016 447.686L437.363 447.457ZM435.855 448.498L435.516 448.743L435.855 448.498ZM435.465 448.777L435.143 449.031L435.465 448.777ZM435.092 449.073L434.762 449.327L435.092 449.073ZM434.745 449.344L434.058 449.902L434.745 449.344ZM434.033 449.919L433.72 450.19L434.033 449.919ZM433.669 450.241L433.364 450.503L433.669 450.241ZM433.313 450.554L433.016 450.816L433.313 450.554ZM432.965 450.867L432.66 451.146L432.965 450.867ZM432.643 451.163L432.347 451.442L432.643 451.163ZM432.313 451.476L432.025 451.763L432.313 451.476ZM431.982 451.814L431.703 452.093L431.982 451.814ZM431.644 452.153L431.372 452.432L431.644 452.153ZM431.322 452.491L431.05 452.779L431.322 452.491ZM431.008 452.829C430.915 452.931 430.822 453.024 430.737 453.125C430.822 453.024 430.915 452.931 431.008 452.829ZM430.703 453.159L430.44 453.455L430.703 453.159ZM430.406 453.498C430.322 453.599 430.228 453.701 430.144 453.811C430.228 453.701 430.322 453.599 430.406 453.498ZM430.101 453.853C430.017 453.963 429.932 454.064 429.839 454.166C429.932 454.064 430.017 453.963 430.101 453.853ZM429.796 454.217L429.542 454.53L429.796 454.217ZM429.508 454.58L429.254 454.91L429.508 454.58ZM429.229 454.936L428.966 455.283L429.229 454.936ZM419.221 477.777L419.069 478.572L419.221 477.777ZM419.043 478.724L418.967 479.139L419.043 478.724ZM418.959 479.198L418.831 479.697L418.933 479.198H418.959ZM439.541 429.125L439.804 429.261L439.541 429.125ZM440.685 429.743L440.922 429.878L440.685 429.743ZM441.032 429.938L441.329 430.115L441.032 429.938ZM441.786 430.378L442.024 430.521L441.786 430.378ZM442.108 430.572L442.735 430.961L442.108 430.572ZM444.523 432.146L444.761 432.306L444.523 432.146ZM445.854 433.093C445.939 433.15 446.021 433.212 446.099 433.279C446.021 433.212 445.939 433.15 445.854 433.093ZM446.193 433.347L446.404 433.499L446.193 433.347ZM446.803 433.804L447.345 434.227L446.803 433.804ZM447.421 434.286L447.676 434.489L447.421 434.286ZM447.701 434.506L447.938 434.7L447.701 434.506ZM447.998 434.751C448.096 434.818 448.189 434.891 448.277 434.971C448.189 434.891 448.096 434.818 447.998 434.751ZM448.633 435.267L449.141 435.682L448.633 435.267ZM449.802 436.248L450.328 436.697L449.802 436.248ZM452.022 438.22L452.514 438.676L452.022 438.22ZM453.183 439.294L453.539 439.632L453.183 439.294ZM467.351 435.656L467.122 435.885L467.351 435.656Z" fill="#604102"/>
</g>
</g>
<defs>
<clipPath id="clip0_16_165">
<rect width="1000" height="1000" fill="white"/>
</clipPath>
<clipPath id="clip1_16_165">
<rect width="396.97" height="406.061" fill="white" transform="translate(301.515 296.97)"/>
</clipPath>
</defs>
</svg>
