<svg width="1000" height="1000" viewBox="0 0 1000 1000" fill="none" xmlns="http://www.w3.org/2000/svg">
<path d="M296.286 703.711H259.229V740.769H296.286V703.711Z" fill="#FFCA5F"/>
<path d="M259.208 740.77H222.326V777.828H259.208V740.77Z" fill="#FFCA5F"/>
<path d="M259.208 703.711H222.326V740.769H259.208V703.711Z" fill="#FFCA5F"/>
<path d="M259.208 666.655H222.326V703.713H259.208V666.655Z" fill="#FFCA5F"/>
<path d="M222.331 777.828H185.273V814.886H222.331V777.828Z" fill="#FFCA5F"/>
<path d="M222.331 740.77H185.273V777.828H222.331V740.77Z" fill="#FFCA5F"/>
<path d="M222.331 703.711H185.273V740.769H222.331V703.711Z" fill="#FFCA5F"/>
<path d="M185.268 777.828H148.21V814.886H185.268V777.828Z" fill="#FFCA5F"/>
<path d="M185.268 740.77H148.21V777.828H185.268V740.77Z" fill="#FFCA5F"/>
<path d="M777.83 444.5V481.558V518.598V555.656V592.556H814.888V555.656V518.598V481.558V444.5V407.442H777.83V444.5Z" fill="#ED8C00"/>
<path d="M740.767 629.614V666.672H777.824V629.614V592.556H740.767V629.614Z" fill="#ED8C00"/>
<path d="M740.767 407.443H777.824V370.385V333.327H740.767V370.385V407.443Z" fill="#ED8C00"/>
<path d="M740.771 666.655H703.713V703.713H740.771V666.655Z" fill="#ED8C00"/>
<path d="M740.771 296.269H703.713V333.327H740.771V296.269Z" fill="#ED8C00"/>
<path d="M703.732 703.711H666.674V740.769H703.732V703.711Z" fill="#ED8C00"/>
<path d="M703.732 259.387H666.674V296.269H703.732V259.387Z" fill="#ED8C00"/>
<path d="M592.558 740.77V777.828H629.615H666.673V740.77H629.615H592.558Z" fill="#ED8C00"/>
<path d="M629.615 259.389H666.673V222.331H629.615H592.558V259.389H629.615Z" fill="#ED8C00"/>
<path d="M518.603 777.828H481.563H444.505H407.447V814.886H444.505H481.563H518.603H555.503H592.561V777.828H555.503H518.603Z" fill="#ED8C00"/>
<path d="M481.563 222.33H518.603H555.503H592.561V185.272H555.503H518.603H481.563H444.505H407.447V222.33H444.505H481.563Z" fill="#ED8C00"/>
<path d="M370.388 740.77H333.33V777.828H370.388H407.446V740.77H370.388Z" fill="#ED8C00"/>
<path d="M407.446 259.389V222.331H370.388H333.33V259.389H370.388H407.446Z" fill="#ED8C00"/>
<path d="M333.324 703.711H296.267V740.769H333.324V703.711Z" fill="#ED8C00"/>
<path d="M333.324 259.387H296.267V296.269H333.324V259.387Z" fill="#ED8C00"/>
<path d="M296.286 666.655H259.229V703.713H296.286V666.655Z" fill="#ED8C00"/>
<path d="M296.286 296.269H259.229V333.327H296.286V296.269Z" fill="#ED8C00"/>
<path d="M259.226 592.556H222.326V629.614V666.672H259.226V629.614V592.556Z" fill="#ED8C00"/>
<path d="M259.226 370.385V333.327H222.326V370.385V407.443H259.226V370.385Z" fill="#ED8C00"/>
<path d="M222.331 518.598V481.558V444.5V407.442H185.273V444.5V481.558V518.598V555.656V592.556H222.331V555.656V518.598Z" fill="#ED8C00"/>
<path d="M888.824 666.672V703.713H925.882V666.672V629.615H888.824V666.672Z" fill="#FFA910"/>
<path d="M925.882 333.327V296.269H888.824V333.327V370.385V407.443H925.882V444.5V481.558V518.599V555.656V592.556V629.614H962.94V592.556V555.656V518.599V481.558V444.5V407.443V370.385H925.882V333.327Z" fill="#FFA910"/>
<path d="M851.947 740.769V777.827H888.829V740.769V703.711H851.947V740.769Z" fill="#FFA910"/>
<path d="M888.829 222.331H851.947V259.389V296.271H888.829V259.389V222.331Z" fill="#FFA910"/>
<path d="M851.943 777.828H814.885V814.886H851.943V777.828Z" fill="#FFA910"/>
<path d="M851.943 185.272H814.885V222.33H851.943V185.272Z" fill="#FFA910"/>
<path d="M814.888 814.887H777.83V851.945H814.888V814.887Z" fill="#FFA910"/>
<path d="M814.888 148.214H777.83V185.272H814.888V148.214Z" fill="#FFA910"/>
<path d="M740.771 111.173H703.713V148.214H740.771H777.829V111.173H740.771Z" fill="#FFA910"/>
<path d="M703.713 851.943V889.001H740.771H777.829V851.943H740.771H703.713Z" fill="#FFA910"/>
<path d="M666.67 74.1168H629.612V111.175H666.67H703.71V74.1168H666.67Z" fill="#FFA910"/>
<path d="M629.612 889.002V925.884H666.67H703.71V889.002H666.67H629.612Z" fill="#FFA910"/>
<path d="M555.497 925.883H518.598H481.557H444.499H407.442H370.384V962.941H407.442H444.499H481.557H518.598H555.497H592.555H629.613V925.883H592.555H555.497Z" fill="#FFA910"/>
<path d="M555.484 74.1168H518.602V111.175H555.484V74.1168Z" fill="#FFA910"/>
<path d="M407.447 222.331V259.389H444.505H481.563H518.603V296.271H555.503V259.389H592.561V222.331H555.503H518.603H481.563H444.505H407.447Z" fill="#FFA910"/>
<path d="M444.505 74.1168H407.447V111.175H444.505V74.1168Z" fill="#FFA910"/>
<path d="M407.442 111.173H370.384V148.231H407.442V111.173Z" fill="#FFA910"/>
<path d="M333.324 889.002H296.267V925.884H333.324H370.382V889.002H333.324Z" fill="#FFA910"/>
<path d="M333.33 259.387V296.269H370.388H407.446V259.387H370.388H333.33Z" fill="#FFA910"/>
<path d="M333.324 296.269H296.267V333.327H333.324V296.269Z" fill="#FFA910"/>
<path d="M333.327 222.33V185.272H370.384V148.214H333.327H296.269V185.272H259.229V222.33H296.269H333.327Z" fill="#FFA910"/>
<path d="M259.226 851.943H222.326V889.001H259.226H296.266V851.943H259.226Z" fill="#FFA910"/>
<path d="M259.229 370.385V407.443H296.269V370.385V333.327H259.229V370.385Z" fill="#FFA910"/>
<path d="M222.326 444.5V481.558V518.598V555.656V592.556H259.226V555.656V518.598V481.558V444.5V407.442H222.326V444.5Z" fill="#FFA910"/>
<path d="M259.208 222.331H222.326V259.389H259.208V222.331Z" fill="#FFA910"/>
<path d="M222.326 296.269V259.387H185.268V296.269H148.21V333.327V370.385H185.268V333.327H222.326V296.269Z" fill="#FFA910"/>
<path d="M148.229 370.386H111.171V407.444H148.229V370.386Z" fill="#FFA910"/>
<path d="M111.174 407.442H74.1162V444.5H111.174V407.442Z" fill="#FFA910"/>
<path d="M925.882 592.556H888.824V629.614H925.882V592.556Z" fill="#FFBA1F"/>
<path d="M888.828 444.5H851.946V481.558H814.888V518.598V555.656V592.556H777.83V629.614V666.671H814.888V629.614H851.946V592.556H888.828V555.656H925.886V518.598V481.558V444.5V407.442H888.828V444.5Z" fill="#FFBA1F"/>
<path d="M851.942 666.672H814.884V703.713H777.826V740.77H740.768V777.828H703.71V814.886H666.67V851.944H629.612V889.002H666.67H703.71V851.944H740.768H777.826V814.886H814.884V777.828H851.942V740.77V703.713H888.824V666.672V629.615H851.942V666.672Z" fill="#FFBA1F"/>
<path d="M777.824 370.386V407.444H814.882V444.502H851.94V407.444H888.822V370.386V333.328V296.271H851.94V259.389V222.331H814.882H777.824V259.389H740.767V296.271V333.328H777.824V370.386Z" fill="#FFBA1F"/>
<path d="M777.824 666.655H740.767V703.713H777.824V666.655Z" fill="#FFBA1F"/>
<path d="M777.824 555.656H740.767V592.538H777.824V555.656Z" fill="#FFBA1F"/>
<path d="M740.771 703.711H703.713V740.769H740.771V703.711Z" fill="#FFBA1F"/>
<path d="M703.732 740.77H666.674V777.828H703.732V740.77Z" fill="#FFBA1F"/>
<path d="M629.615 889.002H592.558V925.884H629.615V889.002Z" fill="#FFBA1F"/>
<path d="M629.619 851.944V814.886H666.676V777.828H629.619H592.561V814.886H555.503H518.603H481.563V851.944H444.505V889.002H407.447V925.884H444.505H481.563H518.603H555.503V889.002H592.561V851.944H629.619Z" fill="#FFBA1F"/>
<path d="M629.615 740.77H666.673V703.712H703.714V666.672H740.771V629.614V592.556H703.714V629.614H666.673V666.672H629.615V703.712H592.558V740.77H629.615Z" fill="#FFBA1F"/>
<path d="M592.553 740.77H555.495V777.828H592.553V740.77Z" fill="#FFBA1F"/>
<path d="M481.558 259.387H444.5H407.442V296.269H370.384H333.327V333.327H296.269V370.385V407.443H259.229V444.5V481.558V518.598V555.656V592.556V629.614H296.269V592.556H333.327V555.656H370.384V518.598H407.442V481.558H444.5V444.5H481.558V407.443H518.598V370.385H555.498V333.327H592.556V296.269H629.614V259.387H592.556H555.498V296.269H518.598V259.387H481.558Z" fill="#FFBA1F"/>
<path d="M444.497 851.943V814.885H407.44V777.828H370.382H333.324V740.77H296.266H259.226V777.828H222.326V814.885V851.943H259.226H296.266V889.001H333.324H370.382H407.44V851.943H444.497Z" fill="#FFBA1F"/>
<path d="M407.447 185.273H444.505H481.563H518.603H555.503H592.561V222.331H629.619H666.676H703.717V185.273H740.775V148.215H703.717V111.175H666.676H629.619V74.1168H592.561H555.503V111.175H518.603V74.1168H481.563V111.175H444.505V148.215H407.447V185.273Z" fill="#FFBA1F"/>
<path d="M407.446 740.77V777.828H444.504H481.561H518.602V740.77H555.501V703.712H592.559V666.672H629.617V629.614H666.675V592.557H703.715V555.657H740.773V518.599H777.831V481.559V444.501V407.443H740.773V370.385V333.327H703.715H666.675V370.385H629.617V407.443H592.559V444.501H555.501V481.559H518.602V518.599H481.561V555.657H444.504V592.557H407.446V629.614H370.388V666.672H333.33V703.712V740.77H370.388H407.446Z" fill="#FFBA1F"/>
<path d="M407.442 185.272H370.384V222.33H407.442V185.272Z" fill="#FFBA1F"/>
<path d="M407.442 74.1168H370.384V111.175H407.442V74.1168Z" fill="#FFBA1F"/>
<path d="M370.382 148.214V111.173H333.324H296.267V148.214H333.324H370.382Z" fill="#FFBA1F"/>
<path d="M296.286 222.331H259.229V259.389H296.286V222.331Z" fill="#FFBA1F"/>
<path d="M296.286 148.214H259.229V185.272H296.286V148.214Z" fill="#FFBA1F"/>
<path d="M259.208 259.387H222.326V296.269H259.208V259.387Z" fill="#FFBA1F"/>
<path d="M259.208 185.272H222.326V222.33H259.208V185.272Z" fill="#FFBA1F"/>
<path d="M222.33 666.671V629.614V592.556H185.272V555.656V518.598V481.558V444.5V407.442H148.214V444.5H111.174V481.558H74.1162V518.598V555.656V592.556V629.614H111.174V666.671V703.712H148.214V740.77H185.272V703.712H222.33V666.671Z" fill="#FFBA1F"/>
<path d="M222.331 370.386H185.273V407.444H222.331V370.386Z" fill="#FFBA1F"/>
<path d="M222.331 222.331H185.273V259.389H222.331V222.331Z" fill="#FFBA1F"/>
<path d="M185.268 259.387H148.21V296.269H185.268V259.387Z" fill="#FFBA1F"/>
<path d="M148.211 333.327V296.269H111.171V333.327V370.385H148.211V333.327Z" fill="#FFBA1F"/>
<path d="M111.174 370.386H74.1162V407.444H111.174V370.386Z" fill="#FFBA1F"/>
<path d="M925.882 555.656H888.824V592.538H925.882V555.656Z" fill="#FFD469"/>
<path d="M888.829 592.556H851.947V629.614H888.829V592.556Z" fill="#FFD469"/>
<path d="M888.829 407.442H851.947V444.5H888.829V407.442Z" fill="#FFD469"/>
<path d="M851.943 629.615H814.885V666.672H851.943V629.615Z" fill="#FFD469"/>
<path d="M851.943 444.501H814.885V481.559H851.943V444.501Z" fill="#FFD469"/>
<path d="M814.888 666.655H777.83V703.713H814.888V666.655Z" fill="#FFD469"/>
<path d="M777.824 703.711H740.767V740.769H777.824V703.711Z" fill="#FFD469"/>
<path d="M777.824 518.6H740.767V555.658H777.824V518.6Z" fill="#FFD469"/>
<path d="M740.771 740.77H703.713V777.828H740.771V740.77Z" fill="#FFD469"/>
<path d="M740.771 555.656H703.713V592.538H740.771V555.656Z" fill="#FFD469"/>
<path d="M703.714 296.269H740.772V259.387H777.83V222.33H814.888V185.272H777.83V148.214H740.772V185.272H703.714V222.33H666.674V259.387H703.714V296.269Z" fill="#FFD469"/>
<path d="M703.732 777.828H666.674V814.886H703.732V777.828Z" fill="#FFD469"/>
<path d="M703.732 592.556H666.674V629.614H703.732V592.556Z" fill="#FFD469"/>
<path d="M666.67 814.887H629.612V851.944H666.67V814.887Z" fill="#FFD469"/>
<path d="M666.67 629.615H629.612V666.672H666.67V629.615Z" fill="#FFD469"/>
<path d="M629.615 851.943H592.558V889.001H629.615V851.943Z" fill="#FFD469"/>
<path d="M629.615 666.655H592.558V703.713H629.615V666.655Z" fill="#FFD469"/>
<path d="M592.553 889.002H555.495V925.884H592.553V889.002Z" fill="#FFD469"/>
<path d="M592.553 703.711H555.495V740.769H592.553V703.711Z" fill="#FFD469"/>
<path d="M555.484 740.77H518.602V777.828H555.484V740.77Z" fill="#FFD469"/>
<path d="M518.598 481.558H555.498V444.5H592.556V407.443H629.614V370.385H666.672V333.327H703.712V296.269H666.672V259.387H629.614V296.269H592.556V333.327H555.498V370.385H518.598V407.443H481.558V444.5H444.5V481.558H407.442V518.599H370.384V555.656H333.327V592.556H296.269V629.614H259.229V666.672H296.269V703.712H333.327V666.672H370.384V629.614H407.442V592.556H444.5V555.656H481.558V518.599H518.598V481.558Z" fill="#FFD469"/>
<path d="M481.558 814.887H444.5V851.944H481.558V814.887Z" fill="#FFD469"/>
<path d="M444.505 851.943H407.447V889.001H444.505V851.943Z" fill="#FFD469"/>
<path d="M444.505 111.173H407.447V148.231H444.505V111.173Z" fill="#FFD469"/>
<path d="M444.499 74.1141V111.172H481.557V74.1141H518.598H555.497H592.555H629.613V37.0563H592.555H555.497H518.598H481.557H444.499H407.442H370.384V74.1141H407.442H444.499Z" fill="#FFD469"/>
<path d="M407.442 889.002H370.384V925.884H407.442V889.002Z" fill="#FFD469"/>
<path d="M407.442 148.214H370.384V185.272H407.442V148.214Z" fill="#FFD469"/>
<path d="M370.388 185.272H333.33V222.33H370.388V185.272Z" fill="#FFD469"/>
<path d="M370.382 111.175V74.1168H333.324H296.267V111.175H333.324H370.382Z" fill="#FFD469"/>
<path d="M333.324 222.331H296.267V259.389H333.324V222.331Z" fill="#FFD469"/>
<path d="M296.286 259.387H259.229V296.269H296.286V259.387Z" fill="#FFD469"/>
<path d="M259.208 296.269H222.326V333.327H259.208V296.269Z" fill="#FFD469"/>
<path d="M222.331 814.887H185.273V851.944H222.331V814.887Z" fill="#FFD469"/>
<path d="M222.331 333.327H185.273V370.385H222.331V333.327Z" fill="#FFD469"/>
<path d="M185.268 370.386H148.21V407.444H185.268V370.386Z" fill="#FFD469"/>
<path d="M111.171 777.827H148.211V740.769V703.711H111.171V740.769V777.827Z" fill="#FFD469"/>
<path d="M148.229 407.442H111.171V444.5H148.229V407.442Z" fill="#FFD469"/>
<path d="M148.211 259.387H185.269V222.329H222.327V185.271H259.227V148.214H296.267V111.173H259.227H222.327V148.214H185.269V185.271H148.211V222.329H111.171V259.387V296.269H148.211V259.387Z" fill="#FFD469"/>
<path d="M74.1162 703.713H111.174V666.672V629.615H74.1162V666.672V703.713Z" fill="#FFD469"/>
<path d="M111.174 333.327V296.269H74.1162V333.327V370.385H111.174V333.327Z" fill="#FFD469"/>
<path d="M74.1125 407.444V370.386H37.0547V407.444V444.502V481.56V518.6V555.658V592.557V629.615H74.1125V592.557V555.658V518.6V481.56H111.17V444.502H74.1125V407.444Z" fill="#FFD469"/>
<path d="M962.942 407.444V444.502V481.56V518.6V555.658V592.557V629.615H1000V592.557V555.658V518.6V481.56V444.502V407.444V370.386H962.942V407.444Z" fill="#3D2900"/>
<path d="M925.888 666.672V703.713H962.946V666.672V629.615H925.888V666.672Z" fill="#3D2900"/>
<path d="M925.888 370.385H962.946V333.327V296.269H925.888V333.327V370.385Z" fill="#3D2900"/>
<path d="M888.824 740.769V777.827H925.882V740.769V703.711H888.824V740.769Z" fill="#3D2900"/>
<path d="M888.824 296.271H925.882V259.389V222.331H888.824V259.389V296.271Z" fill="#3D2900"/>
<path d="M888.829 777.828H851.947V814.886H888.829V777.828Z" fill="#3D2900"/>
<path d="M888.829 185.272H851.947V222.33H888.829V185.272Z" fill="#3D2900"/>
<path d="M851.943 814.887H814.885V851.945H851.943V814.887Z" fill="#3D2900"/>
<path d="M851.943 148.214H814.885V185.272H851.943V148.214Z" fill="#3D2900"/>
<path d="M814.888 851.943H777.83V889.001H814.888V851.943Z" fill="#3D2900"/>
<path d="M814.888 111.173H777.83V148.231H814.888V111.173Z" fill="#3D2900"/>
<path d="M703.713 889.002V925.884H740.771H777.829V889.002H740.771H703.713Z" fill="#3D2900"/>
<path d="M740.771 111.175H777.829V74.1168H740.771H703.713V111.175H740.771Z" fill="#3D2900"/>
<path d="M629.612 925.883V962.941H666.67H703.71V925.883H666.67H629.612Z" fill="#3D2900"/>
<path d="M666.67 74.1141H703.71V37.0563H666.67H629.612V74.1141H666.67Z" fill="#3D2900"/>
<path d="M555.497 962.942H518.598H481.557H444.499H407.442H370.384V1000H407.442H444.499H481.557H518.598H555.497H592.555H629.613V962.942H592.555H555.497Z" fill="#3D2900"/>
<path d="M444.499 37.0578H481.557H518.598H555.497H592.555H629.613V0H592.555H555.497H518.598H481.557H444.499H407.442H370.384V37.0578H407.442H444.499Z" fill="#3D2900"/>
<path d="M333.324 925.883H296.267V962.941H333.324H370.382V925.883H333.324Z" fill="#3D2900"/>
<path d="M370.382 74.1141V37.0563H333.324H296.267V74.1141H333.324H370.382Z" fill="#3D2900"/>
<path d="M259.226 889.002H222.326V925.884H259.226H296.266V889.002H259.226Z" fill="#3D2900"/>
<path d="M296.266 111.175V74.1168H259.226H222.326V111.175H259.226H296.266Z" fill="#3D2900"/>
<path d="M222.331 851.943H185.273V889.001H222.331V851.943Z" fill="#3D2900"/>
<path d="M222.331 111.173H185.273V148.231H222.331V111.173Z" fill="#3D2900"/>
<path d="M185.268 814.887H148.21V851.944H185.268V814.887Z" fill="#3D2900"/>
<path d="M185.268 148.214H148.21V185.272H185.268V148.214Z" fill="#3D2900"/>
<path d="M148.229 777.828H111.171V814.886H148.229V777.828Z" fill="#3D2900"/>
<path d="M148.229 185.272H111.171V222.33H148.229V185.272Z" fill="#3D2900"/>
<path d="M111.174 703.711H74.1162V740.769V777.827H111.174V740.769V703.711Z" fill="#3D2900"/>
<path d="M111.174 259.389V222.331H74.1162V259.389V296.271H111.174V259.389Z" fill="#3D2900"/>
<path d="M74.1125 629.615H37.0547V666.672V703.713H74.1125V666.672V629.615Z" fill="#3D2900"/>
<path d="M74.1125 333.327V296.269H37.0547V333.327V370.385H74.1125V333.327Z" fill="#3D2900"/>
<path d="M37.0578 555.658V518.6V481.56V444.502V407.444V370.386H0V407.444V444.502V481.56V518.6V555.658V592.557V629.615H37.0578V592.557V555.658Z" fill="#3D2900"/>
<path fill-rule="evenodd" clip-rule="evenodd" d="M594.929 605.685C596.563 605.508 598.267 605.287 600.028 605.018C602.311 604.669 604.642 604.243 607.002 603.739C609.235 603.27 611.552 602.708 613.933 602.055C616.215 601.43 618.512 600.733 620.787 599.973C623.062 599.213 625.232 598.41 627.493 597.508C629.681 596.627 631.872 595.68 634.065 594.666C636.258 593.652 638.397 592.582 640.482 591.455C642.562 590.337 644.635 589.153 646.702 587.902C648.768 586.652 650.775 585.352 652.724 584.002C654.668 582.657 656.612 581.236 658.557 579.739C660.501 578.243 662.379 576.715 664.192 575.157C666.004 573.594 667.803 571.955 669.587 570.24C671.372 568.526 673.088 566.785 674.737 565.018C676.427 563.223 678.071 561.378 679.667 559.484C681.264 557.589 682.823 555.64 684.345 553.637C685.859 551.64 687.345 549.594 688.782 547.491C692.315 542.371 695.522 537.029 698.383 531.499C700.992 526.467 703.214 521.242 705.033 515.868C706.705 510.929 707.933 505.848 708.702 500.686C709.423 495.832 709.659 490.917 709.407 486.015C709.148 481.159 708.364 476.347 707.068 471.663C705.767 466.98 703.962 462.453 701.687 458.165C699.319 453.729 696.506 449.551 693.29 445.696C689.881 441.615 686.109 437.858 682.02 434.471C680.339 433.05 678.608 431.714 676.829 430.464C675.025 429.163 673.145 427.913 671.193 426.719C669.242 425.526 667.228 424.361 665.164 423.267C663.1 422.173 660.938 421.135 658.782 420.126C656.622 419.146 654.417 418.225 652.168 417.363C649.918 416.501 647.641 415.703 645.335 414.968C643.018 414.258 640.679 413.547 638.326 412.965C635.974 412.382 633.572 411.828 631.184 411.359C628.796 410.89 626.464 410.514 624.14 410.194C621.815 409.874 619.435 409.619 617.054 409.434C614.673 409.249 612.306 409.128 610.01 409.086C607.713 409.043 605.368 409.086 603.071 409.157C600.775 409.228 598.451 409.42 596.182 409.654L594.957 409.789V441.128C595.823 441.007 596.704 440.907 597.591 440.822C599.24 440.656 600.914 440.545 602.614 440.488C603.607 440.453 604.628 440.438 605.664 440.438C606.699 440.438 607.777 440.439 608.819 440.495C609.862 440.552 610.932 440.588 611.982 440.659C613.032 440.73 614.095 440.822 615.173 440.929L616.349 441.049L618.117 441.234L617.117 442.705L616.448 443.692L616.194 444.069L616.124 444.168C615.835 444.623 615.539 445.099 615.265 445.589C614.976 446.115 614.701 446.641 614.454 447.152C614.208 447.664 613.982 448.197 613.75 448.73C613.553 449.234 613.377 449.753 613.222 450.271C612.861 451.426 612.625 452.617 612.517 453.824C612.424 454.919 612.469 456.022 612.651 457.106C612.821 458.091 613.125 459.047 613.553 459.948C613.983 460.845 614.525 461.683 615.166 462.442L616.469 463.571C617.293 464.118 618.061 464.658 618.751 465.205C619.455 465.75 620.13 466.331 620.773 466.946C621.38 467.522 621.949 468.136 622.478 468.786C622.965 469.387 623.407 470.024 623.802 470.69C624.101 471.199 624.36 471.732 624.577 472.282C625.005 473.341 625.244 474.47 625.281 475.614C625.293 476.179 625.255 476.745 625.168 477.304C625.062 477.991 624.904 478.667 624.696 479.329C624.478 480.035 624.215 480.726 623.908 481.397C623.586 482.101 623.228 482.789 622.837 483.457C622.428 484.168 621.97 484.878 621.484 485.532C620.998 486.185 620.329 487.045 619.667 487.805C619.005 488.565 618.308 489.304 617.554 490.022C616.8 490.739 616.032 491.443 615.201 492.153C614.37 492.864 613.518 493.517 612.637 494.157C611.637 494.867 610.623 495.578 609.594 496.189C608.566 496.821 607.481 497.411 606.446 497.951C605.389 498.491 604.311 498.983 603.212 499.428C602.149 499.862 601.057 500.252 599.951 500.586C598.923 500.899 597.873 501.169 596.809 501.396C596.176 501.524 595.548 501.638 594.914 501.737V533.083C596.542 532.898 598.176 532.635 599.845 532.309C601.789 531.925 603.712 531.442 605.593 530.888C607.474 530.334 609.376 529.659 611.228 528.92C613.081 528.181 614.969 527.335 616.793 526.426C618.617 525.517 620.428 524.508 622.196 523.442C623.964 522.376 625.718 521.204 627.359 520.01C629 518.817 630.768 517.417 632.395 516.011C634.023 514.604 635.558 513.169 637.037 511.62C638.517 510.071 639.904 508.529 641.214 506.91C642.525 505.29 643.75 503.627 644.884 501.936C646.018 500.245 647.082 498.462 648.033 496.679C648.965 494.925 649.804 493.123 650.548 491.279C651.271 489.498 651.892 487.676 652.407 485.823C652.913 484.028 653.31 482.203 653.598 480.36C653.94 478.188 654.126 475.994 654.154 473.795C654.184 471.671 654.053 469.547 653.76 467.443C653.467 465.382 653.017 463.346 652.414 461.355C651.836 459.465 651.118 457.622 650.266 455.841L650.125 455.55L649.935 455.159L649.871 455.039L649.597 454.499L649.237 453.788L649.794 453.234L650.759 452.289L651.315 451.742L652.02 452.119C653.048 452.677 654.072 453.272 655.091 453.902C656.105 454.52 657.099 455.159 658.049 455.806C659 456.452 659.951 457.12 660.867 457.795C661.783 458.47 662.67 459.216 663.523 459.927C665.957 461.947 668.206 464.184 670.243 466.612C672.16 468.906 673.84 471.391 675.258 474.029C676.622 476.587 677.701 479.289 678.477 482.086C679.244 484.867 679.698 487.727 679.829 490.611C679.964 493.701 679.779 496.796 679.28 499.847C678.736 503.144 677.901 506.384 676.786 509.531C675.57 512.965 674.106 516.303 672.405 519.52C670.529 523.074 668.445 526.512 666.164 529.815C665.037 531.463 663.903 533.036 662.762 534.532C661.621 536.029 660.426 537.521 659.176 539.008C657.944 540.479 656.69 541.85 655.422 543.271C654.154 544.692 652.809 545.992 651.477 547.264C650.146 548.536 648.758 549.814 647.378 551.001C645.997 552.187 644.56 553.388 643.151 554.482C641.743 555.576 640.214 556.685 638.728 557.708C637.242 558.731 635.657 559.761 634.142 560.685C632.513 561.674 630.9 562.596 629.303 563.448C627.676 564.329 626.021 565.153 624.372 565.921C622.724 566.688 620.956 567.455 619.294 568.123C617.631 568.791 615.856 569.43 614.102 570.02C612.348 570.61 610.503 571.171 608.798 571.633C607.002 572.123 605.206 572.556 603.431 572.933C601.576 573.331 599.782 573.66 598.049 573.92C597.035 574.077 596.021 574.219 595.02 574.333L594.929 605.685ZM327.667 413.086C322.793 415.454 317.679 418.033 312.326 420.823C306.972 423.612 301.508 426.57 295.934 429.696L292.011 431.877L293.483 436.14L299.935 454.612L301.992 460.523L307.451 457.49C312.532 454.648 317.498 451.957 322.349 449.419C327.2 446.88 331.825 444.528 336.226 442.364C340.649 440.204 344.955 438.205 349.144 436.368C353.333 434.53 357.343 432.896 361.175 431.465C364.876 430.082 368.461 428.872 371.931 427.835C375.402 426.798 378.729 425.959 381.913 425.32C384.972 424.692 388.065 424.242 391.175 423.97C394.024 423.721 396.886 423.676 399.741 423.835C402.171 423.971 404.585 424.306 406.961 424.837C409.299 425.352 411.589 426.065 413.808 426.968C416.063 427.901 418.24 429.018 420.316 430.307C422.487 431.669 424.556 433.189 426.508 434.854C428.736 436.757 430.837 438.805 432.798 440.986C434.962 443.382 437.001 445.891 438.905 448.502C440.906 451.23 442.892 454.207 444.864 457.433C446.837 460.658 448.8 464.118 450.753 467.813L454.078 474.093L454.747 475.365L454.86 475.578L454.958 475.77L455.057 475.955C458.699 482.896 462.545 490.221 466.532 497.567C470.518 504.913 474.815 512.593 479.316 520.16C483.817 527.726 488.516 535.172 493.51 542.426C498.409 549.595 503.661 556.511 509.246 563.15C514.799 569.77 520.836 575.961 527.307 581.672C533.426 587.085 540.099 591.827 547.213 595.817C554.065 599.653 561.415 602.503 569.049 604.286C576.924 606.082 585.031 606.607 593.069 605.842C593.668 605.792 594.281 605.728 594.9 605.657V574.318C594.126 574.411 593.358 574.496 592.597 574.567C580.179 575.711 568.528 572.08 557.631 565.203C546.734 558.326 536.725 548.337 527.342 536.621C517.959 524.906 509.514 511.755 501.66 498.256C493.806 484.757 486.677 471.258 480.246 458.974L475.928 450.747L475.886 450.648C473.397 445.945 470.871 441.537 468.307 437.426C465.743 433.315 463.122 429.493 460.446 425.959C457.899 422.577 455.169 419.339 452.268 416.261C449.593 413.414 446.737 410.746 443.716 408.276C440.786 405.874 437.68 403.699 434.425 401.768C431.291 399.918 428.014 398.323 424.627 397.001C421.253 395.687 417.778 394.653 414.237 393.91C410.586 393.139 406.882 392.648 403.157 392.44C399.513 392.23 395.858 392.26 392.218 392.532C388.347 392.813 384.496 393.311 380.68 394.024C376.712 394.763 372.629 395.724 368.43 396.908C364.232 398.092 359.893 399.499 355.413 401.129C351.102 402.701 346.623 404.487 341.974 406.485C337.325 408.484 332.537 410.672 327.611 413.05L327.667 413.086ZM594.929 409.789V441.128C594.224 441.227 593.449 441.341 592.724 441.462C591.16 441.727 589.62 442.042 588.103 442.406C586.586 442.771 585.131 443.183 583.736 443.643C582.024 444.195 580.351 444.862 578.728 445.639C577.22 446.359 575.769 447.195 574.389 448.14C573.097 449.024 571.887 450.025 570.775 451.131C569.721 452.179 568.777 453.334 567.957 454.577L567.204 455.728H567.253C566.789 456.563 566.382 457.43 566.034 458.321C565.521 459.674 565.144 461.076 564.907 462.506C564.662 463.991 564.549 465.497 564.569 467.003C564.595 468.627 564.741 470.246 565.006 471.848C565.386 474.214 565.851 476.424 566.415 478.477C566.924 480.469 567.545 482.431 568.274 484.352C568.949 486.119 569.742 487.838 570.648 489.496C571.484 491.014 572.441 492.461 573.508 493.823C574.416 494.966 575.423 496.027 576.516 496.991C577.572 497.916 578.716 498.732 579.932 499.428C581.137 500.118 582.409 500.68 583.729 501.105C585.058 501.532 586.427 501.823 587.814 501.972L588.652 502.064C589.357 502.114 590.061 502.142 590.73 502.135C591.74 502.132 592.749 502.075 593.752 501.965L594.943 501.808V533.083L594.112 533.175C592.239 533.366 590.358 533.461 588.476 533.46C586.641 533.453 584.807 533.351 582.982 533.154L582.454 533.097C579.618 532.76 576.816 532.178 574.079 531.357C568.43 529.657 563.166 526.859 558.582 523.122C556.236 521.198 554.073 519.058 552.123 516.728C550.159 514.396 548.387 511.906 546.825 509.282C545.164 506.492 543.707 503.584 542.465 500.579C541.124 497.339 539.985 494.017 539.056 490.633C538.052 486.957 537.245 483.228 536.64 479.464C536.011 475.664 535.67 471.821 535.619 467.969C535.57 464.381 535.835 460.796 536.408 457.255C536.954 453.902 537.82 450.609 538.993 447.422C540.139 444.3 541.598 441.302 543.346 438.478C545.104 435.631 547.135 432.966 549.411 430.52C551.777 427.997 554.371 425.702 557.159 423.664C560.099 421.509 563.214 419.608 566.471 417.981C569.944 416.237 573.542 414.757 577.234 413.555C579.193 412.915 581.2 412.34 583.229 411.842C585.257 411.345 587.399 410.897 589.568 410.521C591.28 410.258 593.111 409.995 594.929 409.789Z" fill="#3D2900"/>
</svg>
